<?xml version="1.0" standalone="no"?><!DOCTYPE svg PUBLIC "-//W3C//DTD SVG 1.1//EN" "http://www.w3.org/Graphics/SVG/1.1/DTD/svg11.dtd"><svg t="1665307676643" class="icon" viewBox="0 0 1024 1024" version="1.1" xmlns="http://www.w3.org/2000/svg" p-id="1079" xmlns:xlink="http://www.w3.org/1999/xlink" width="200" height="200"><path d="M128 213.333333a85.333333 85.333333 0 0 1 85.333333-85.333333h170.666667a85.333333 85.333333 0 0 1 85.333333 85.333333v170.666667a85.333333 85.333333 0 0 1-85.333333 85.333333H213.333333a85.333333 85.333333 0 0 1-85.333333-85.333333V213.333333z m256 0H213.333333v170.666667h170.666667V213.333333zM128 640a85.333333 85.333333 0 0 1 85.333333-85.333333h170.666667a85.333333 85.333333 0 0 1 85.333333 85.333333v170.666667a85.333333 85.333333 0 0 1-85.333333 85.333333H213.333333a85.333333 85.333333 0 0 1-85.333333-85.333333v-170.666667z m256 0H213.333333v170.666667h170.666667v-170.666667z" fill="#2F3035" p-id="1080"></path><path d="M640 597.333333a42.666667 42.666667 0 1 0-85.333333 0v256a42.666667 42.666667 0 1 0 85.333333 0v-256zM853.333333 554.666667a42.666667 42.666667 0 0 1 42.666667 42.666666v256a42.666667 42.666667 0 1 1-85.333333 0v-256a42.666667 42.666667 0 0 1 42.666666-42.666666zM768 597.333333a42.666667 42.666667 0 1 0-85.333333 0v64a42.666667 42.666667 0 1 0 85.333333 0V597.333333zM725.333333 746.666667a42.666667 42.666667 0 0 1 42.666667 42.666666V853.333333a42.666667 42.666667 0 1 1-85.333333 0v-64a42.666667 42.666667 0 0 1 42.666666-42.666666z" fill="#2F3035" p-id="1081"></path><path d="M640 128a85.333333 85.333333 0 0 0-85.333333 85.333333v170.666667a85.333333 85.333333 0 0 0 85.333333 85.333333h170.666667a85.333333 85.333333 0 0 0 85.333333-85.333333V213.333333a85.333333 85.333333 0 0 0-85.333333-85.333333h-170.666667z m0 85.333333h170.666667v170.666667h-170.666667V213.333333z" fill="#2F3035" p-id="1082"></path></svg>